<?xml version="1.0" standalone="no"?>
<!DOCTYPE svg PUBLIC "-//W3C//DTD SVG 20010904//EN"
 "http://www.w3.org/TR/2001/REC-SVG-20010904/DTD/svg10.dtd">
<svg version="1.0" xmlns="http://www.w3.org/2000/svg"
 width="300.000000pt" height="300.000000pt" viewBox="0 0 300.000000 300.000000"
 preserveAspectRatio="xMidYMid meet">
<metadata>
Created by potrace 1.14, written by Peter Selinger 2001-2017
</metadata>
<g transform="translate(0.000000,300.000000) scale(0.100000,-0.100000)"
fill="#000000" stroke="none">
<path d="M1389 2525 c-26 -7 -81 -29 -123 -49 -42 -20 -79 -36 -82 -36 -12 0
-102 -67 -147 -109 -46 -43 -157 -190 -157 -208 0 -4 -20 -33 -45 -63 -59 -71
-68 -108 -69 -262 l-1 -127 36 -38 c59 -62 63 -106 8 -78 -18 10 -29 11 -29 5
0 -6 -4 -9 -9 -6 -12 8 -28 -61 -25 -109 3 -51 12 -110 25 -159 6 -21 8 -40 5
-43 -2 -3 -25 -6 -51 -8 -72 -4 -77 -15 -75 -141 1 -60 3 -129 5 -154 5 -71
19 -382 18 -416 0 -21 -12 -47 -34 -75 -45 -56 -86 -136 -94 -179 -3 -18 -8
-37 -11 -41 -8 -13 35 -21 101 -17 35 1 67 -1 72 -6 4 -5 3 -6 -4 -2 -7 4 -13
3 -13 -3 0 -5 6 -11 13 -14 9 -3 7 -10 -6 -25 -14 -15 -15 -22 -6 -28 8 -4 10
-3 5 4 -9 14 4 15 24 2 8 -5 10 -10 4 -10 -6 0 -11 -7 -11 -16 0 -14 2 -14 14
2 12 16 11 21 -4 33 -17 13 -17 13 0 8 10 -4 17 -1 17 6 0 8 4 7 10 -3 8 -13
11 -13 19 -1 7 11 10 9 16 -8 6 -21 25 -29 25 -11 0 6 5 10 11 10 8 0 8 -5 -1
-15 -10 -12 -9 -16 4 -21 9 -3 23 -4 30 -1 10 4 13 1 10 -8 -3 -8 -12 -11 -20
-8 -10 4 -12 0 -8 -11 3 -9 11 -13 17 -9 6 3 7 1 3 -6 -4 -6 -11 -9 -15 -7 -4
3 -12 -4 -19 -15 -7 -10 -8 -19 -3 -19 5 0 12 6 15 13 3 8 14 2 31 -18 16 -19
23 -23 19 -11 -6 15 -4 17 7 10 21 -12 49 -15 49 -5 0 6 -5 13 -12 17 -7 5 -8
2 -3 -7 6 -11 5 -12 -5 -2 -12 11 -11 15 6 27 10 8 21 10 22 5 2 -5 8 -7 13
-3 8 4 13 -8 11 -27 -2 -10 41 -25 68 -25 24 1 26 4 17 36 -2 8 -2 12 0 7 3
-4 9 -5 13 -2 5 3 12 0 16 -6 4 -7 3 -9 -4 -5 -7 4 -10 -1 -9 -14 2 -25 6 -25
24 -2 12 13 14 14 10 1 -4 -11 2 -15 22 -15 14 1 32 5 40 10 10 6 12 6 7 -2
-4 -7 -2 -12 3 -12 6 0 11 5 11 12 0 9 3 9 12 0 16 -16 60 -15 77 0 8 7 11 9
8 3 -3 -6 21 -10 64 -11 48 -1 67 2 62 10 -4 6 1 4 12 -4 21 -17 24 -17 36 2
5 7 9 8 9 2 0 -15 151 -15 169 -1 10 8 12 8 8 1 -4 -7 13 -11 54 -11 54 0 58
1 42 14 -13 11 -10 11 9 -1 31 -18 42 -20 33 -6 -3 5 7 5 24 -1 25 -9 34 -8
47 5 19 19 31 21 15 2 -9 -11 -2 -13 39 -12 27 1 50 5 50 10 0 4 -8 5 -17 1
-15 -5 -16 -4 -5 7 11 11 16 10 26 -4 10 -14 15 -15 26 -5 7 7 10 7 7 2 -6
-12 107 -14 119 -2 10 10 26 9 20 -2 -8 -12 27 -8 36 4 4 5 20 10 36 10 16 0
37 7 46 14 13 11 19 11 34 0 16 -13 16 -13 0 6 -21 26 -23 36 -6 46 20 13 24
11 25 -11 1 -13 -2 -18 -9 -14 -7 4 -8 2 -4 -5 6 -9 11 -9 22 0 12 10 12 14 2
20 -9 6 -8 9 7 10 11 1 25 1 30 0 6 -1 2 5 -7 12 -15 12 -16 16 -3 34 8 11 13
22 12 24 -1 3 2 1 7 -3 5 -4 17 -3 28 3 10 5 22 8 27 5 4 -3 8 1 8 9 0 9 -7
14 -15 13 -8 -2 -17 3 -20 11 -3 10 0 12 12 8 9 -4 16 -2 16 3 0 6 5 9 12 8
14 -3 18 22 7 37 -4 6 -7 14 -7 18 0 15 -26 72 -41 91 -9 10 -14 19 -11 20 2
0 -9 21 -26 46 -34 50 -33 24 -19 320 24 512 27 484 -47 485 -64 1 -67 6 -51
67 11 42 25 130 25 158 1 43 -6 65 -28 87 -21 21 -28 23 -35 12 -5 -8 -9 -10
-9 -5 0 5 -7 2 -16 -5 -32 -26 -5 47 30 85 19 20 36 49 38 68 11 72 -5 255
-25 293 -5 11 -27 40 -49 64 -21 24 -38 48 -38 53 0 11 -69 125 -95 157 -154
188 -453 306 -646 256z m-444 -2365 c3 -5 1 -10 -4 -10 -6 0 -11 5 -11 10 0 6
2 10 4 10 3 0 8 -4 11 -10z m60 -8 c-3 -3 -11 0 -18 7 -9 10 -8 11 6 5 10 -3
15 -9 12 -12z m1179 7 c3 -3 -5 -5 -19 -5 -13 0 -22 3 -19 7 4 8 30 6 38 -2z
m153 -5 c-3 -3 -12 -4 -19 -1 -8 3 -5 6 6 6 11 1 17 -2 13 -5z m-16 -19 c3 2
5 -5 5 -15 0 -24 -9 -25 -26 -5 -14 16 -50 4 -50 -17 0 -9 3 -9 12 0 7 7 17
12 23 12 5 0 4 -4 -4 -9 -8 -5 -16 -17 -17 -26 -4 -29 -25 -47 -40 -34 -11 9
-14 8 -14 -1 0 -7 -6 -10 -14 -7 -7 3 -19 0 -25 -6 -8 -8 -14 -8 -19 -2 -9 13
-31 13 -40 0 -11 -15 -50 -14 -48 1 1 7 6 17 11 21 4 4 5 3 1 -4 -3 -6 -2 -14
4 -18 5 -3 10 3 10 13 0 24 29 37 36 17 4 -8 10 -12 16 -9 5 3 4 13 -4 22 -12
16 -11 16 6 2 18 -13 19 -13 14 1 -3 9 -2 22 4 30 8 11 9 11 5 -2 -7 -21 21
-62 35 -53 7 4 6 9 -3 14 -7 5 -14 16 -15 24 -1 9 2 13 9 9 7 -4 8 0 3 13 -6
15 -5 16 5 7 10 -10 9 -15 -1 -28 -7 -8 -8 -15 -2 -15 16 0 31 25 28 46 -2 10
-1 13 1 7 6 -17 13 -16 43 7 16 12 29 15 36 9 6 -5 13 -7 15 -4z m-1461 1 c0
-2 -7 -7 -16 -10 -8 -3 -12 -2 -9 4 6 10 25 14 25 6z m28 -21 c-3 -3 -9 2 -12
12 -6 14 -5 15 5 6 7 -7 10 -15 7 -18z m1242 -10 c14 -19 14 -19 -2 -6 -10 7
-18 18 -18 24 0 6 1 8 3 6 1 -2 9 -13 17 -24z m-1214 -4 c-14 -5 -16 -10 -8
-15 7 -4 18 -4 25 -1 6 4 3 -1 -7 -9 -11 -9 -24 -16 -28 -16 -5 0 -4 -10 2
-22 10 -21 9 -21 -9 2 -17 20 -20 21 -14 5 6 -18 5 -19 -11 -6 -15 13 -15 16
-2 23 8 5 13 16 10 26 -5 16 -5 16 6 0 6 -10 16 -18 22 -18 7 0 7 4 -1 13 -13
16 -5 27 18 26 12 0 11 -2 -3 -8z m47 -8 c-3 -7 -6 -13 -8 -13 -2 0 -5 6 -8
13 -3 8 1 14 8 14 7 0 11 -6 8 -14z m64 -13 c1 -11 -2 -22 -8 -25 -5 -3 -6 1
-3 9 4 12 0 14 -20 10 -14 -2 -26 0 -26 5 0 6 9 8 20 6 11 -2 22 0 25 6 9 13
11 11 12 -11z m960 -5 c0 -8 -4 -12 -9 -9 -5 3 -6 10 -3 15 9 13 12 11 12 -6z
m79 0 c-1 -8 -6 -18 -11 -22 -4 -5 -5 -2 0 6 6 11 4 13 -11 8 -18 -7 -18 -7 0
8 24 18 25 18 22 0z m-899 -30 c0 -8 -4 -15 -9 -15 -10 0 -11 14 -1 23 9 10
10 9 10 -8z m87 -4 c12 -13 14 -21 6 -26 -6 -4 -9 -1 -8 7 2 7 -2 12 -8 11 -6
-1 -11 5 -11 13 0 18 0 18 21 -5z m533 4 c0 -8 -4 -15 -9 -15 -10 0 -11 14 -1
23 9 10 10 9 10 -8z m-737 -27 c0 -5 -5 -8 -11 -8 -5 0 -7 5 -4 10 3 6 1 10
-5 10 -6 0 -8 5 -4 11 6 11 23 -6 24 -23z m250 26 c0 -8 -19 -13 -24 -6 -3 5
1 9 9 9 8 0 15 -2 15 -3z m690 -6 c0 -10 -17 -10 -24 0 -3 5 1 9 9 9 8 0 15
-4 15 -9z m46 3 c-4 -5 -3 -11 1 -14 5 -2 3 -2 -4 -1 -6 2 -13 -2 -16 -9 -2
-6 -6 -3 -10 7 -4 9 -3 15 2 11 5 -3 12 -1 16 5 3 5 8 10 11 10 3 0 3 -4 0 -9z
m-1021 -21 c3 -6 -1 -7 -9 -4 -18 7 -21 14 -7 14 6 0 13 -4 16 -10z m129 2 c3
-5 -1 -9 -9 -9 -8 0 -12 4 -9 9 3 4 7 8 9 8 2 0 6 -4 9 -8z m91 -10 c-3 -3
-11 0 -18 7 -9 10 -8 11 6 5 10 -3 15 -9 12 -12z m145 12 c0 -8 -19 -13 -24
-6 -3 5 1 9 9 9 8 0 15 -2 15 -3z m167 0 c-8 -8 -48 -13 -43 -6 2 4 14 8 26 9
12 1 20 0 17 -3z m58 -4 c13 -6 15 -9 5 -9 -8 0 -22 4 -30 9 -18 12 -2 12 25
0z m305 0 c0 -5 -2 -10 -4 -10 -3 0 -8 5 -11 10 -3 6 -1 10 4 10 6 0 11 -4 11
-10z"/>
<path d="M2223 75 c-9 -9 -9 -16 -2 -20 12 -8 41 14 33 26 -7 12 -17 11 -31
-6z"/>
<path d="M2107 53 c-4 -3 -7 -11 -7 -17 0 -6 5 -5 12 2 6 6 9 14 7 17 -3 3 -9
2 -12 -2z"/>
<path d="M2156 51 c-4 -5 -2 -12 3 -15 5 -4 12 -2 15 3 4 5 2 12 -3 15 -5 4
-12 2 -15 -3z"/>
<path d="M670 204 c0 -13 18 -39 24 -34 2 3 -2 14 -10 24 -8 11 -14 16 -14 10z"/>
<path d="M661 164 c0 -11 3 -14 6 -6 3 7 2 16 -1 19 -3 4 -6 -2 -5 -13z"/>
<path d="M747 134 c3 -8 0 -21 -7 -29 -16 -19 -3 -20 15 -1 8 7 11 17 7 21 -4
5 -1 5 6 1 10 -6 10 -13 -3 -33 -10 -14 -12 -23 -7 -19 6 3 12 3 15 -1 2 -5 2
-2 0 5 -1 8 3 12 9 9 7 -2 12 -11 10 -21 -4 -20 12 -21 29 0 10 12 10 17 0 23
-7 5 -12 11 -12 15 2 17 0 17 -16 5 -11 -9 -14 -10 -9 -2 9 17 -4 38 -26 39
-10 1 -14 -4 -11 -12z m60 -31 c-4 -3 -2 -12 4 -19 7 -8 6 -14 -2 -20 -7 -4
-9 -3 -5 4 3 6 2 13 -4 17 -10 6 -5 25 7 25 4 0 3 -3 0 -7z"/>
<path d="M2356 142 c-7 -7 5 -32 16 -32 5 0 6 5 3 10 -9 14 8 12 24 -2 11 -11
11 -9 1 8 -12 19 -34 27 -44 16z"/>
<path d="M762 44 c10 -10 20 -16 22 -13 3 3 -5 11 -17 18 -21 13 -21 12 -5 -5z"/>
<path d="M943 32 c10 -10 15 -21 12 -24 -3 -2 2 -5 10 -5 11 0 12 4 4 14 -6 7
-8 13 -3 13 12 0 -18 20 -30 20 -5 0 -2 -8 7 -18z"/>
<path d="M836 22 c-3 -5 1 -9 9 -9 8 0 12 4 9 9 -3 4 -7 8 -9 8 -2 0 -6 -4 -9
-8z"/>
<path d="M2255 20 c-3 -6 1 -7 9 -4 18 7 21 14 7 14 -6 0 -13 -4 -16 -10z"/>
</g>
</svg>
